<?xml version="1.0" standalone="no"?>
<!DOCTYPE svg PUBLIC "-//W3C//DTD SVG 20010904//EN"
 "http://www.w3.org/TR/2001/REC-SVG-20010904/DTD/svg10.dtd">
<svg version="1.0" xmlns="http://www.w3.org/2000/svg"
 width="904.000000pt" height="904.000000pt" viewBox="0 0 904.000000 904.000000"
 preserveAspectRatio="xMidYMid meet">
<metadata>
Created by potrace 1.11, written by Peter Selinger 2001-2013
</metadata>
<g transform="translate(0.000000,904.000000) scale(0.100000,-0.100000)"
fill="#000000" stroke="none">
<path d="M5168 7516 c-1 -2 -61 -6 -133 -10 -71 -3 -148 -8 -170 -11 -22 -3
-60 -7 -85 -10 -97 -12 -230 -38 -340 -66 -72 -18 -124 -27 -140 -23 -14 4
-29 8 -35 10 -5 1 -50 12 -100 23 -49 12 -101 25 -115 28 -14 3 -28 6 -32 5
-4 -1 -31 3 -60 9 -29 5 -66 12 -83 14 -16 2 -57 7 -90 11 -132 17 -622 9
-718 -12 -12 -3 -36 -6 -53 -8 -25 -3 -103 -16 -124 -21 -3 -1 -25 -5 -50 -10
-53 -10 -59 -12 -62 -14 -2 -2 -12 -4 -24 -6 -31 -6 -122 -31 -184 -51 -30
-10 -58 -18 -62 -18 -3 -1 -10 -4 -14 -8 -4 -5 -14 -8 -22 -8 -8 0 -28 -6 -45
-14 -18 -8 -63 -26 -102 -41 -81 -32 -273 -127 -360 -178 -33 -20 -81 -48
-107 -63 -27 -15 -48 -31 -48 -36 0 -4 -4 -8 -10 -8 -9 0 -148 -95 -160 -109
-3 -3 -23 -19 -45 -36 -22 -16 -56 -44 -75 -62 -19 -18 -50 -43 -67 -56 -18
-12 -33 -28 -33 -34 0 -7 -4 -13 -8 -13 -16 0 -210 -202 -273 -285 -13 -16
-26 -32 -29 -35 -34 -32 -196 -269 -255 -375 -77 -137 -194 -388 -211 -450 -1
-5 -10 -30 -19 -55 -27 -71 -73 -229 -81 -280 -3 -19 -8 -38 -11 -42 -4 -8 -7
-20 -18 -78 -3 -14 -7 -36 -10 -50 -3 -14 -8 -43 -10 -65 -3 -22 -8 -56 -10
-75 -3 -19 -7 -45 -9 -58 -6 -28 -18 -234 -19 -317 -1 -79 12 -334 18 -366 3
-13 8 -46 11 -74 7 -66 65 -355 77 -385 6 -16 61 -192 62 -200 1 -10 64 -166
90 -225 70 -160 229 -440 290 -512 5 -7 16 -19 23 -27 6 -8 12 -19 12 -24 0
-5 10 -20 23 -33 12 -13 42 -50 66 -81 23 -31 46 -58 49 -60 4 -2 20 -19 36
-38 40 -50 132 -145 208 -215 69 -64 76 -70 178 -153 99 -81 100 -82 106 -82
5 0 28 -17 81 -60 7 -6 14 -10 17 -10 3 0 37 -21 77 -46 84 -55 288 -164 305
-164 7 0 14 -4 16 -8 2 -7 249 -110 283 -119 6 -1 69 -20 141 -42 73 -22 145
-42 160 -45 16 -2 40 -8 54 -11 26 -6 53 -11 107 -19 17 -2 35 -6 40 -9 4 -2
42 -8 82 -11 41 -4 78 -9 81 -11 8 -5 257 -18 330 -17 72 1 268 12 300 17 14
2 52 7 85 11 33 3 69 8 80 11 11 2 38 6 60 9 43 5 271 60 308 73 13 5 42 3 72
-6 53 -14 216 -52 250 -58 23 -4 85 -14 130 -21 17 -2 55 -7 85 -9 30 -3 78
-8 105 -10 108 -11 446 -5 555 9 19 3 55 8 80 11 49 6 141 22 180 31 14 3 34
7 45 9 11 2 31 6 45 10 14 4 32 8 40 9 8 1 42 11 75 20 33 10 67 19 75 21 8 2
29 9 45 15 17 6 37 13 45 15 22 5 128 45 180 67 24 11 49 21 55 22 56 10 446
231 560 318 244 188 401 333 547 509 60 72 98 119 118 149 13 19 27 37 30 40
3 3 24 34 47 70 24 36 46 70 50 75 43 54 181 321 236 455 47 116 107 293 107
317 0 10 4 23 9 28 11 13 64 246 56 253 -2 3 -1 10 4 16 5 6 12 36 16 66 3 30
8 66 10 80 27 184 27 579 0 775 -36 268 -93 484 -193 735 -45 114 -122 275
-183 380 -41 72 -157 249 -174 267 -8 7 -22 27 -32 43 -9 17 -21 30 -25 30 -4
0 -8 5 -8 10 0 6 -8 18 -17 28 -10 10 -36 41 -58 68 -76 94 -325 335 -411 400
-22 16 -45 35 -52 42 -42 39 -309 214 -392 255 -19 10 -59 31 -88 46 -29 16
-64 32 -77 35 -14 4 -25 11 -25 16 0 6 -7 10 -15 10 -8 0 -23 4 -33 9 -40 22
-113 51 -125 51 -8 0 -17 3 -21 8 -4 4 -11 7 -14 7 -4 1 -33 11 -65 23 -33 12
-66 24 -75 26 -10 2 -24 6 -32 9 -8 3 -53 16 -100 28 -110 27 -121 30 -145 34
-11 2 -31 6 -45 9 -162 32 -254 43 -450 52 -63 3 -120 7 -127 9 -6 2 -13 2
-15 1z"/>
</g>
</svg>
